<svg width="150" height="151" viewBox="0 0 150 151" fill="none" xmlns="http://www.w3.org/2000/svg">
<path d="M143.53 76.781C143.53 52.6478 131.053 31.4287 112.198 19.2222" stroke="#252525"/>
<path d="M143.357 75.7599C143.186 75.305 142.994 74.7807 142.854 74.4012C142.755 74.1305 142.682 73.9334 142.664 73.8876C141.492 70.9032 139.995 68.2964 138.128 65.8611C137.977 65.6632 137.719 65.6502 137.554 65.8312C137.388 66.0123 137.377 66.3205 137.529 66.5184C139.34 68.8792 140.792 71.4069 141.929 74.302C141.947 74.3476 142.019 74.5424 142.118 74.811C142.384 75.5359 142.849 76.7977 142.988 77.1131C143.065 77.2908 143.155 77.3627 143.178 77.3772C143.295 77.4598 143.4 77.4552 143.479 77.4328C143.569 77.4067 143.708 77.3206 143.808 77.1104C143.885 76.9471 143.972 76.6202 144.028 76.4098C144.048 76.3362 144.063 76.2769 144.074 76.2438C144.243 75.7002 144.407 75.1338 144.574 74.5575C144.999 73.0908 145.442 71.56 146.044 70.1782C146.843 68.3427 147.922 66.7682 149.656 66.024C149.867 65.9336 149.976 65.6543 149.901 65.4018C149.825 65.1492 149.592 65.0181 149.381 65.1085C147.443 65.941 146.216 67.6774 145.323 69.7285C144.707 71.145 144.251 72.7132 143.815 74.2144C143.662 74.741 143.511 75.2593 143.357 75.7599Z" fill="#252525"/>
<path d="M143.357 75.7599C143.186 75.305 142.994 74.7807 142.854 74.4012C142.755 74.1305 142.682 73.9334 142.664 73.8876C141.492 70.9032 139.995 68.2964 138.128 65.8611C137.977 65.6632 137.719 65.6502 137.554 65.8312C137.388 66.0123 137.377 66.3205 137.529 66.5184C139.34 68.8792 140.792 71.4069 141.929 74.302C141.947 74.3476 142.019 74.5424 142.118 74.811C142.384 75.5359 142.849 76.7977 142.988 77.1131C143.065 77.2908 143.155 77.3627 143.178 77.3772C143.295 77.4598 143.4 77.4552 143.479 77.4328C143.569 77.4067 143.708 77.3206 143.808 77.1104C143.885 76.9471 143.972 76.6202 144.028 76.4098C144.048 76.3362 144.063 76.2769 144.074 76.2438C144.243 75.7002 144.407 75.1338 144.574 74.5575C144.999 73.0908 145.442 71.56 146.044 70.1782C146.843 68.3427 147.922 66.7682 149.656 66.024C149.867 65.9336 149.976 65.6543 149.901 65.4018C149.825 65.1492 149.592 65.0181 149.381 65.1085C147.443 65.941 146.216 67.6774 145.323 69.7285C144.707 71.145 144.251 72.7132 143.815 74.2144C143.662 74.741 143.511 75.2593 143.357 75.7599Z" stroke="#252525"/>
<path d="M142.258 104.332L141.57 105.647L133.97 104.136L139.558 109.492L139.039 110.485L131.459 108.937L137.034 114.318L136.347 115.633L128.999 108.567L129.628 107.363L137.184 108.866L131.633 103.53L132.263 102.327L142.258 104.332Z" fill="#252525"/>
<path d="M124.647 114.29C125.232 113.516 125.928 112.943 126.736 112.57C127.551 112.204 128.403 112.075 129.291 112.185C130.179 112.294 131.022 112.65 131.819 113.252C132.615 113.855 133.188 114.568 133.536 115.392C133.883 116.217 133.992 117.071 133.862 117.956C133.732 118.84 133.374 119.669 132.789 120.444C132.204 121.218 131.504 121.789 130.688 122.155C129.873 122.522 129.022 122.65 128.133 122.541C127.245 122.431 126.403 122.075 125.606 121.473C124.809 120.871 124.237 120.158 123.889 119.333C123.541 118.509 123.432 117.654 123.562 116.77C123.7 115.891 124.061 115.065 124.647 114.29ZM125.674 115.067C125.258 115.618 125.004 116.21 124.912 116.842C124.822 117.488 124.905 118.112 125.163 118.716C125.427 119.326 125.865 119.861 126.476 120.323C127.079 120.778 127.706 121.048 128.357 121.13C129.01 121.226 129.628 121.143 130.212 120.882C130.802 120.627 131.306 120.224 131.722 119.673C132.144 119.114 132.404 118.515 132.502 117.875C132.594 117.243 132.51 116.618 132.251 116.001C131.986 115.391 131.552 114.859 130.949 114.403C130.339 113.941 129.704 113.667 129.045 113.578C128.394 113.496 127.773 113.582 127.182 113.838C126.593 114.106 126.091 114.516 125.674 115.067Z" fill="#252525"/>
<path d="M128.73 125.048L125.948 127.83C125.209 128.569 124.463 128.959 123.711 128.998C122.959 129.038 122.239 128.714 121.553 128.028C121.045 127.52 120.748 126.952 120.662 126.325C120.583 125.705 120.728 125.085 121.098 124.464L116.762 123.177L117.811 122.128L122.018 123.385L123.533 121.87L120.801 119.138L121.81 118.128L128.73 125.048ZM122.78 124.326C122.338 124.768 122.091 125.22 122.038 125.682C121.985 126.157 122.163 126.599 122.573 127.008C123.021 127.457 123.47 127.648 123.919 127.582C124.361 127.523 124.81 127.266 125.265 126.81L126.869 125.207L124.384 122.722L122.78 124.326Z" fill="#252525"/>
<path d="M122.138 131.408L121.011 132.285L114.998 124.565L116.124 123.687L122.138 131.408ZM118.005 128.54L117.432 135.072L116.063 136.139L116.636 129.606L109.829 128.591L111.198 127.524L118.005 128.54Z" fill="#252525"/>
<path d="M111.691 138.819L106.006 141.874L105.436 140.813L109.863 138.435L108.399 135.709L105.094 137.485L104.531 136.436L107.836 134.661L106.365 131.923L101.937 134.302L101.374 133.253L107.06 130.199L111.691 138.819Z" fill="#252525"/>
<path d="M99.4083 139.378L104.428 142.61L102.898 143.197L99.0384 140.72L97.8271 145.144L96.2979 145.731L97.879 139.965L92.6737 136.64L94.203 136.053L98.2408 138.642L99.5095 134.016L101.039 133.429L99.4083 139.378Z" fill="#252525"/>
<path d="M94.8663 146.042L91.2099 146.944C90.1859 147.196 89.3157 147.137 88.5993 146.766C87.876 146.406 87.3982 145.755 87.1657 144.812C86.9287 143.852 87.0433 143.05 87.5094 142.406C87.9777 141.771 88.7283 141.327 89.7614 141.072L92.0313 140.512L91.1361 136.883L92.5225 136.541L94.8663 146.042ZM90.1959 142.19C89.5616 142.347 89.0911 142.602 88.7844 142.957C88.4777 143.311 88.4048 143.814 88.5657 144.467C88.7267 145.119 89.0253 145.531 89.4617 145.702C89.9003 145.882 90.4367 145.894 91.071 145.738L93.1915 145.215L92.3163 141.667L90.1959 142.19Z" fill="#252525"/>
<path d="M86.8081 147.873L80.4062 148.691L80.2536 147.497L85.239 146.859L84.8466 143.79L81.1249 144.266L80.974 143.086L84.6957 142.61L84.3016 139.527L79.3161 140.165L79.1652 138.984L85.5671 138.166L86.8081 147.873Z" fill="#252525"/>
<path d="M78.5946 148.791L74.6608 148.836C73.6156 148.848 72.81 148.606 72.2442 148.108C71.6784 147.611 71.3899 146.877 71.3787 145.906C71.3703 145.188 71.5546 144.574 71.9314 144.066C72.3083 143.567 72.8457 143.224 73.5436 143.039L71.3417 139.088L72.8256 139.071L74.9562 142.91L77.0981 142.886L77.0533 139.022L78.4812 139.005L78.5946 148.791ZM74.8442 144.116C74.2189 144.123 73.7259 144.274 73.3653 144.567C72.9954 144.87 72.8139 145.311 72.8206 145.889C72.8279 146.524 73.0152 146.975 73.3823 147.241C73.74 147.508 74.2409 147.637 74.8849 147.63L77.1527 147.603L77.112 144.09L74.8442 144.116Z" fill="#252525"/>
<path d="M69.3216 148.649L67.8843 148.533L68.6761 138.779L70.1134 138.896L69.3216 148.649Z" fill="#252525"/>
<path d="M65.5209 148.333L59.1511 147.294L59.3449 146.105L64.3054 146.914L64.8035 143.861L61.1004 143.257L61.292 142.082L64.995 142.686L65.4954 139.619L60.5349 138.81L60.7265 137.635L67.0963 138.674L65.5209 148.333Z" fill="#252525"/>
<path d="M57.3352 146.888L56.0329 146.503L53.3444 138.015L51.2532 145.09L49.8704 144.682L52.644 135.297L53.9598 135.686L56.6482 144.174L58.7394 137.098L60.1088 137.503L57.3352 146.888Z" fill="#252525"/>
<path d="M47.3852 132.726C48.303 133.143 49.032 133.704 49.5722 134.411C50.1124 135.117 50.424 135.91 50.507 136.788C50.5861 137.675 50.4154 138.581 49.9948 139.508C49.5741 140.434 49.004 141.159 48.2843 141.683C47.5646 142.207 46.761 142.498 45.8735 142.556C44.986 142.615 44.0833 142.435 43.1655 142.019C41.9417 141.463 41.0586 140.688 40.5159 139.693L41.0832 138.444C41.5254 139.434 42.3626 140.209 43.5949 140.768C44.2832 141.081 44.9588 141.218 45.6215 141.181C46.2757 141.14 46.8712 140.923 47.4079 140.532C47.9407 140.148 48.3654 139.608 48.6818 138.911C48.9982 138.214 49.1273 137.535 49.0692 136.873C49.0025 136.207 48.7694 135.615 48.3698 135.095C47.9618 134.571 47.4178 134.155 46.738 133.846C46.1091 133.561 45.5116 133.387 44.9453 133.325C44.3668 133.267 43.7821 133.324 43.1912 133.497L43.7643 132.235C44.8185 131.945 46.0255 132.108 47.3852 132.726Z" fill="#252525"/>
<path d="M38.6776 139.517L33.1821 136.133L33.8135 135.107L38.0931 137.743L39.7154 135.108L36.5206 133.141L37.1446 132.128L40.3394 134.095L41.9692 131.449L37.6896 128.813L38.3136 127.8L43.8091 131.184L38.6776 139.517Z" fill="#252525"/>
<path d="M27.4634 117.242L22.654 118.979L23.0597 123.667L20.0851 119.933L14.9212 121.809L17.9044 117.195L14.9298 113.461L19.409 114.905L22.1947 110.628L22.3893 115.86L27.4634 117.242ZM24.8504 117.354L21.5681 116.514L21.4833 113.127L19.7852 115.894L17.0016 114.961L18.8422 117.272L16.8923 120.239L20.2292 119.013L22.0784 121.334L21.7741 118.391L24.8504 117.354Z" fill="#252525"/>
<path d="M3.52329 94.4925L3.2564 93.0327L10.1764 89.5474L2.47589 88.7635L2.27447 87.6617L9.20204 84.2177L1.49647 83.4063L1.22959 81.9465L11.3697 82.996L11.6139 84.3318L4.73267 87.7958L12.3919 88.5873L12.6361 89.9231L3.52329 94.4925Z" fill="#252525"/>
<path d="M11.2781 75.8869C11.2931 76.8575 11.0966 77.7379 10.6888 78.5283C10.2716 79.3189 9.6792 79.9441 8.91154 80.404C8.14389 80.8639 7.26078 81.1016 6.26224 81.117C5.26369 81.1324 4.37367 80.9221 3.59218 80.4861C2.81069 80.0501 2.19925 79.4435 1.75786 78.6662C1.31647 77.889 1.08829 77.015 1.0733 76.0445C1.05831 75.0739 1.25941 74.1934 1.67659 73.4029C2.09376 72.6123 2.68618 71.9871 3.45384 71.5272C4.2215 71.0673 5.1046 70.8296 6.10315 70.8142C7.1017 70.7988 7.99171 71.0091 8.77321 71.4451C9.5547 71.8811 10.1661 72.4877 10.6075 73.265C11.0396 74.0424 11.2631 74.9164 11.2781 75.8869ZM9.99024 75.9068C9.97957 75.2162 9.81594 74.5933 9.49933 74.0382C9.17324 73.4738 8.72305 73.0327 8.14874 72.7149C7.56509 72.3972 6.89065 72.2442 6.12541 72.256C5.3695 72.2677 4.70944 72.4413 4.14521 72.7767C3.57151 73.1029 3.13501 73.5484 2.83569 74.1131C2.52704 74.6779 2.37805 75.3056 2.38871 75.9962C2.39952 76.6961 2.5633 77.3283 2.88005 77.8928C3.19666 78.448 3.64686 78.8891 4.23065 79.2161C4.81429 79.5338 5.48406 79.6868 6.23997 79.6752C7.00521 79.6633 7.67461 79.4897 8.24817 79.1541C8.81239 78.8187 9.24882 78.3685 9.55747 77.8037C9.85665 77.2297 10.0009 76.5974 9.99024 75.9068Z" fill="#252525"/>
<path d="M1.4256 69.8107L1.9095 65.9066C2.03808 64.8692 2.3869 64.1036 2.95595 63.6098C3.52501 63.1161 4.29118 62.9289 5.25448 63.0483C5.96769 63.1367 6.55084 63.4018 7.00395 63.8435C7.44779 64.2841 7.71465 64.8627 7.80453 65.5792L12.0155 63.9286L11.833 65.4014L7.74176 66.9962L7.47828 69.122L11.3129 69.5973L11.1373 71.0144L1.4256 69.8107ZM6.5624 66.7231C6.63932 66.1025 6.55659 65.5938 6.31423 65.197C6.06375 64.7897 5.65138 64.5505 5.07711 64.4794C4.44726 64.4013 3.97564 64.5262 3.66226 64.8542C3.35002 65.1729 3.1543 65.6517 3.07508 66.2909L2.79611 68.5416L6.28342 68.9739L6.5624 66.7231Z" fill="#252525"/>
<path d="M2.70332 60.706L3.05586 59.3222L12.539 61.7381L12.1864 63.1219L2.70332 60.706ZM7.72651 60.4398L4.17567 54.9266L4.60425 53.2443L8.15508 58.7575L14.1565 55.3889L13.7279 57.0711L7.72651 60.4398Z" fill="#252525"/>
<path d="M6.49065 48.1932L9.13719 42.3068L10.2353 42.8005L8.17433 47.3845L10.9962 48.6533L12.5348 45.2312L13.6201 45.7192L12.0816 49.1412L14.9163 50.4157L16.9772 45.8317L18.0626 46.3197L15.416 52.2061L6.49065 48.1932Z" fill="#252525"/>
<path d="M15.6905 40.5578L9.74345 41.0802L10.5921 39.6792L15.1605 39.271L13.4064 35.0331L14.255 33.6321L16.5392 39.1568L22.6905 38.5944L21.8418 39.9954L17.0645 40.4243L18.897 44.857L18.0484 46.2581L15.6905 40.5578Z" fill="#252525"/>
<path d="M15.1329 32.5376L17.4686 29.5835C18.1228 28.7562 18.8466 28.2696 19.6402 28.1236C20.4323 27.9646 21.209 28.1861 21.9704 28.7881C22.7465 29.4017 23.1477 30.1056 23.1741 30.8999C23.1932 31.6884 22.8728 32.4999 22.2129 33.3346L20.7628 35.1686L23.695 37.4869L22.8093 38.6071L15.1329 32.5376ZM21.1839 32.7173C21.5891 32.2048 21.8042 31.7145 21.8292 31.2465C21.8543 30.7784 21.6032 30.336 21.0761 29.9192C20.5489 29.5025 20.0605 29.3602 19.6109 29.4925C19.1539 29.619 18.7228 29.9385 18.3176 30.451L16.963 32.1642L19.8293 34.4305L21.1839 32.7173Z" fill="#252525"/>
<path d="M20.3962 26.0767L24.9433 21.4965L25.7977 22.3447L22.2567 25.9115L24.4525 28.0914L27.0959 25.4287L27.9404 26.2671L25.297 28.9298L27.5026 31.1194L31.0436 27.5526L31.8881 28.391L27.3411 32.9713L20.3962 26.0767Z" fill="#252525"/>
<path d="M26.4765 20.1237L29.5625 17.6838C30.3825 17.0355 31.1684 16.7353 31.9203 16.7833C32.6721 16.8314 33.3491 17.2361 33.9511 17.9975C34.3969 18.5613 34.6259 19.1595 34.6383 19.7922C34.645 20.4175 34.4287 21.0169 33.9896 21.5901L38.1468 23.3718L36.9827 24.2922L32.9499 22.555L31.2696 23.8835L33.6662 26.9145L32.546 27.8002L26.4765 20.1237ZM32.302 21.5324C32.7925 21.1445 33.0908 20.7242 33.1969 20.2715C33.3045 19.8057 33.1789 19.3458 32.82 18.8919C32.4263 18.394 32.0028 18.1518 31.5494 18.1653C31.1033 18.1729 30.6277 18.3764 30.1225 18.7759L28.3434 20.1825L30.5229 22.939L32.302 21.5324Z" fill="#252525"/>
<path d="M33.6938 14.6858L34.8989 13.8939L40.2727 22.0724L39.0676 22.8642L33.6938 14.6858Z" fill="#252525"/>
<path d="M36.8443 12.6124L42.5069 9.51594L43.0846 10.5723L38.6748 12.9837L40.1593 15.6983L43.4512 13.8982L44.0222 14.9423L40.7302 16.7424L42.2213 19.4694L46.6311 17.058L47.202 18.1021L41.5394 21.1986L36.8443 12.6124Z" fill="#252525"/>
<path d="M43.819 8.86119L45.0812 8.36037L52.4349 13.3802L49.7139 6.52231L51.0543 5.99051L54.6633 15.0867L53.388 15.5927L46.0344 10.5728L48.7553 17.4308L47.428 17.9574L43.819 8.86119Z" fill="#252525"/>
<path d="M60.5078 13.7924C59.5282 14.0301 58.608 14.0373 57.747 13.814C56.8861 13.5907 56.1523 13.1589 55.5455 12.5186C54.9365 11.8692 54.5121 11.0502 54.2722 10.0616C54.0323 9.07294 54.0342 8.15049 54.2778 7.29423C54.5214 6.43796 54.9747 5.71332 55.6375 5.12029C56.3004 4.52726 57.1216 4.1119 58.1012 3.87421C59.4073 3.55729 60.5806 3.62315 61.621 4.07178L61.9445 5.40509C60.986 4.89817 59.8491 4.80427 58.5339 5.12339C57.7993 5.30166 57.1825 5.60978 56.6837 6.04775C56.194 6.48351 55.8586 7.02109 55.6776 7.66046C55.4944 8.29077 55.4931 8.9778 55.6735 9.72155C55.854 10.4653 56.1712 11.0798 56.6251 11.5652C57.0881 12.0483 57.6371 12.3713 58.272 12.5341C58.9161 12.6948 59.6009 12.6871 60.3265 12.511C60.9977 12.3482 61.5754 12.1167 62.0597 11.8167C62.5508 11.5055 62.9758 11.0998 63.3347 10.5998L63.6615 11.9467C63.0103 12.825 61.959 13.4403 60.5078 13.7924Z" fill="#252525"/>
<path d="M63.2868 3.0346L69.7005 2.31463L69.8348 3.51112L64.8402 4.07178L65.1854 7.14647L68.9139 6.72792L69.0467 7.9105L65.3181 8.32905L65.6648 11.4176L70.6594 10.857L70.7922 12.0396L64.3785 12.7595L63.2868 3.0346Z" fill="#252525"/>
<path d="M85.8921 13.5947L88.6262 9.27359L85.4307 5.81866L90.0701 6.94439L92.9988 2.29592L93.4714 7.76971L98.1108 8.89545L93.6873 10.5017L94.1097 15.5887L90.7474 11.5747L85.8921 13.5947ZM87.8872 11.9035L90.995 10.5543L93.1388 13.1778L92.7836 9.95105L95.5545 8.98108L92.6838 8.28451L92.4046 4.74485L90.5206 7.75961L87.6363 7.05974L89.6817 9.19836L87.8872 11.9035Z" fill="#252525"/>
</svg>
