<svg width="21" height="20" viewBox="0 0 21 20" fill="none" xmlns="http://www.w3.org/2000/svg">
<g clip-path="url(#clip0_18_1075)">
<rect width="12" height="16" transform="translate(12) rotate(45)" fill="white"/>
<path d="M15.8275 5.65691C15.8275 5.10448 15.379 4.65591 14.8265 4.65591H7.75548C7.20305 4.65591 6.75448 5.10448 6.75448 5.65691C6.75448 6.20933 7.20305 6.6579 7.75548 6.6579L12.4158 6.6557L5.63637 13.4351C5.24525 13.8262 5.24525 14.4582 5.63637 14.8493C6.02749 15.2404 6.65947 15.2404 7.05058 14.8493L13.83 8.06991L13.83 12.728C13.83 13.2804 14.2785 13.729 14.831 13.729C15.3834 13.729 15.832 13.2804 15.832 12.728L15.832 5.65691L15.8275 5.65691Z" fill="#515260"/>
</g>
<defs>
<clipPath id="clip0_18_1075">
<rect width="12" height="16" fill="white" transform="translate(12) rotate(45)"/>
</clipPath>
</defs>
</svg>
