<svg width="17" height="13" viewBox="0 0 17 13" fill="none" xmlns="http://www.w3.org/2000/svg">
<g clip-path="url(#clip0_18_1105)">
<path d="M1.81189 5.43239C1.43104 5.81325 1.43896 6.4397 1.82959 6.83032L6.82959 11.8303C7.22021 12.2209 7.84666 12.2289 8.22752 11.848C8.60838 11.4672 8.60045 10.8407 8.20982 10.4501L4.91299 7.1563L14.3806 7.27614C14.9269 7.28306 15.3626 6.84735 15.3556 6.30114C15.3487 5.75493 14.9019 5.30806 14.3556 5.30114L4.88799 5.1813L8.09939 1.96989C8.48025 1.58903 8.47232 0.962588 8.0817 0.571962C7.69107 0.181338 7.06463 0.173408 6.68377 0.554267L1.80877 5.42927L1.81189 5.43239Z" fill="#252525"/>
</g>
<defs>
<clipPath id="clip0_18_1105">
<rect width="11.8509" height="15.8013" fill="white" transform="matrix(-0.0126572 -0.99992 0.99992 0.0126572 0.618164 12.0386)"/>
</clipPath>
</defs>
</svg>
