<svg width="17" height="13" viewBox="0 0 17 13" fill="none" xmlns="http://www.w3.org/2000/svg">
<g clip-path="url(#clip0_18_1101)">
<path d="M14.8993 7.25706C15.2899 6.86644 15.2979 6.23999 14.917 5.85913L10.042 0.984131C9.66113 0.603271 9.03469 0.611201 8.64406 1.00183C8.25344 1.39245 8.24551 2.0189 8.62637 2.39976L11.8409 5.61112L2.3732 5.73097C1.82699 5.73788 1.38012 6.18476 1.3732 6.73097C1.36629 7.27718 1.80199 7.71288 2.3482 7.70597L11.8159 7.58612L8.52211 10.8799C8.13148 11.2705 8.12356 11.8969 8.50441 12.2778C8.88527 12.6587 9.51172 12.6507 9.90234 12.2601L14.9023 7.26011L14.8993 7.25706Z" fill="white"/>
</g>
<defs>
<clipPath id="clip0_18_1101">
<rect width="11.8509" height="15.8013" fill="white" transform="matrix(-0.0126572 0.99992 -0.99992 0.0126572 16.2607 0.618408)"/>
</clipPath>
</defs>
</svg>
