<svg width="32" height="32" viewBox="0 0 32 32" fill="none" xmlns="http://www.w3.org/2000/svg">
<path d="M13.6914 15.9947L22.6573 24.6142C22.9041 24.851 23.04 25.1676 23.04 25.5051C23.04 25.8429 22.9041 26.1592 22.6573 26.3964L21.8716 27.1513C21.6251 27.3888 21.2956 27.5195 20.9445 27.5195C20.5934 27.5195 20.2643 27.3888 20.0176 27.1513L9.34227 16.8889C9.09461 16.651 8.95899 16.3331 8.95997 15.9952C8.95899 15.6558 9.09441 15.3383 9.34226 15.1002L20.0077 4.8478C20.2544 4.61028 20.5835 4.47953 20.9348 4.47953C21.2859 4.47953 21.615 4.61028 21.8619 4.8478L22.6473 5.60269C23.1584 6.09402 23.1584 6.89386 22.6473 7.38501L13.6914 15.9947Z" fill="#333333"/>
</svg>
