<svg width="32" height="32" viewBox="0 0 32 32" fill="none" xmlns="http://www.w3.org/2000/svg">
<path d="M18.3086 16.0053L9.34273 7.38576C9.09585 7.14899 8.96004 6.83242 8.96004 6.49488C8.96004 6.15715 9.09585 5.84077 9.34273 5.60362L10.1284 4.84874C10.3749 4.61122 10.7044 4.48047 11.0555 4.48047C11.4066 4.48047 11.7357 4.61122 11.9824 4.84874L22.6577 15.1111C22.9054 15.349 23.041 15.6669 23.04 16.0048C23.041 16.3442 22.9056 16.6617 22.6577 16.8998L11.9923 27.1522C11.7456 27.3897 11.4165 27.5205 11.0652 27.5205C10.7141 27.5205 10.385 27.3897 10.1381 27.1522L9.35267 26.3973C8.84157 25.906 8.84157 25.1061 9.35267 24.615L18.3086 16.0053Z" fill="#333333"/>
</svg>
