<svg width="49" height="41" viewBox="0 0 49 41" fill="none" xmlns="http://www.w3.org/2000/svg">
<path d="M39.7824 20.9423C45.2258 20.9423 48.894 24.9459 48.894 30.8781C48.894 36.2163 44.678 40.6636 38.9676 40.6636C32.7128 40.6636 28.0911 35.3254 28.0911 27.1714C28.0911 8.63793 40.871 1.22454 48.894 0.333618V8.48761C43.4541 9.52519 37.338 15.307 37.0641 21.6865C37.338 21.5399 38.4232 20.9423 39.7824 20.9423ZM12.0487 20.9423C17.4852 20.9423 21.1569 24.9459 21.1569 30.8781C21.1569 36.2163 16.9408 40.6636 11.2304 40.6636C4.97571 40.6636 0.354004 35.3254 0.354004 27.1714C0.354004 8.63793 13.1339 1.22454 21.1569 0.333618V8.48761C15.7169 9.52519 9.60087 15.307 9.32697 21.6865C9.60087 21.5399 10.6861 20.9423 12.0487 20.9423Z" fill="#333333"/>
</svg>
