<svg width="18" height="18" viewBox="0 0 18 18" fill="none" xmlns="http://www.w3.org/2000/svg">
<g clip-path="url(#clip0_18_622)">
<path d="M9 0.28125C4.19414 0.28125 0.28125 4.19414 0.28125 9C0.28125 13.8059 4.19414 17.7188 9 17.7188C13.8059 17.7188 17.7188 13.8059 17.7188 9C17.7188 4.19414 13.8059 0.28125 9 0.28125ZM14.7656 4.30312C15.8027 5.56875 16.432 7.18594 16.4461 8.94375C16.2 8.89102 13.7391 8.3918 11.2605 8.70469C11.0566 8.2125 10.8668 7.77656 10.6066 7.24219C13.3594 6.11719 14.6074 4.51758 14.7656 4.30664V4.30312ZM13.9359 3.4418C13.8023 3.63164 12.6809 5.13984 10.0336 6.13125C8.81367 3.88828 7.46016 2.04609 7.25625 1.77188C9.61875 1.20234 12.1078 1.81758 13.9395 3.4418H13.9359ZM5.83242 2.27109C6.0293 2.5418 7.3582 4.38398 8.59219 6.57773C5.1082 7.50234 2.03906 7.48828 1.70859 7.48477C2.19375 5.175 3.75117 3.25547 5.83242 2.27109ZM1.55391 9.01055C1.55391 8.9332 1.55391 8.85938 1.55742 8.78203C1.88437 8.78906 5.49141 8.83477 9.21094 7.72383C9.42539 8.14219 9.6293 8.56406 9.81563 8.98594C7.12266 9.74531 4.67578 11.9215 3.46992 13.9887C2.27812 12.6703 1.55391 10.923 1.55391 9.01055ZM4.42969 14.8852C5.20664 13.2961 7.31953 11.243 10.3219 10.2164C11.366 12.934 11.7984 15.2121 11.9109 15.8625C9.5168 16.882 6.6375 16.6043 4.42969 14.8816V14.8852ZM13.1625 15.184C13.0852 14.7305 12.6914 12.5508 11.7141 9.87539C14.0484 9.50273 16.098 10.1145 16.3512 10.1953C16.0207 12.266 14.8289 14.0555 13.159 15.1875L13.1625 15.184Z" fill="#09011C"/>
</g>
<defs>
<clipPath id="clip0_18_622">
<rect width="18" height="18" fill="white"/>
</clipPath>
</defs>
</svg>
