<svg width="16" height="16" viewBox="0 0 16 16" fill="none" xmlns="http://www.w3.org/2000/svg">
<g clip-path="url(#clip0_18_616)">
<path d="M5.43437 12.4187C5.43437 12.4812 5.3625 12.5312 5.27187 12.5312C5.16875 12.5406 5.09688 12.4906 5.09688 12.4187C5.09688 12.3562 5.16875 12.3062 5.25938 12.3062C5.35313 12.2969 5.43437 12.3469 5.43437 12.4187ZM4.4625 12.2781C4.44063 12.3406 4.50313 12.4125 4.59688 12.4312C4.67813 12.4625 4.77187 12.4312 4.79063 12.3687C4.80938 12.3062 4.75 12.2344 4.65625 12.2063C4.575 12.1844 4.48438 12.2156 4.4625 12.2781ZM5.84375 12.225C5.75313 12.2469 5.69062 12.3063 5.7 12.3781C5.70937 12.4406 5.79063 12.4813 5.88438 12.4594C5.975 12.4375 6.0375 12.3781 6.02812 12.3156C6.01875 12.2563 5.93437 12.2156 5.84375 12.225ZM7.9 0.25C3.56563 0.25 0.25 3.54063 0.25 7.875C0.25 11.3406 2.43125 14.3063 5.54688 15.35C5.94688 15.4219 6.0875 15.175 6.0875 14.9719C6.0875 14.7781 6.07812 13.7094 6.07812 13.0531C6.07812 13.0531 3.89062 13.5219 3.43125 12.1219C3.43125 12.1219 3.075 11.2125 2.5625 10.9781C2.5625 10.9781 1.84687 10.4875 2.6125 10.4969C2.6125 10.4969 3.39062 10.5594 3.81875 11.3031C4.50312 12.5094 5.65 12.1625 6.09688 11.9563C6.16875 11.4563 6.37188 11.1094 6.59688 10.9031C4.85 10.7094 3.0875 10.4562 3.0875 7.45C3.0875 6.59062 3.325 6.15938 3.825 5.60938C3.74375 5.40625 3.47813 4.56875 3.90625 3.4875C4.55937 3.28437 6.0625 4.33125 6.0625 4.33125C6.6875 4.15625 7.35938 4.06563 8.025 4.06563C8.69063 4.06563 9.3625 4.15625 9.9875 4.33125C9.9875 4.33125 11.4906 3.28125 12.1438 3.4875C12.5719 4.57188 12.3063 5.40625 12.225 5.60938C12.725 6.1625 13.0312 6.59375 13.0312 7.45C13.0312 10.4656 11.1906 10.7063 9.44375 10.9031C9.73125 11.15 9.975 11.6187 9.975 12.3531C9.975 13.4062 9.96562 14.7094 9.96562 14.9656C9.96562 15.1687 10.1094 15.4156 10.5063 15.3438C13.6313 14.3062 15.75 11.3406 15.75 7.875C15.75 3.54063 12.2344 0.25 7.9 0.25ZM3.2875 11.0281C3.24687 11.0594 3.25625 11.1313 3.30938 11.1906C3.35938 11.2406 3.43125 11.2625 3.47187 11.2219C3.5125 11.1906 3.50312 11.1187 3.45 11.0594C3.4 11.0094 3.32812 10.9875 3.2875 11.0281ZM2.95 10.775C2.92813 10.8156 2.95937 10.8656 3.02187 10.8969C3.07187 10.9281 3.13438 10.9187 3.15625 10.875C3.17812 10.8344 3.14687 10.7844 3.08437 10.7531C3.02187 10.7344 2.97187 10.7437 2.95 10.775ZM3.9625 11.8875C3.9125 11.9281 3.93125 12.0219 4.00312 12.0813C4.075 12.1531 4.16562 12.1625 4.20625 12.1125C4.24688 12.0719 4.22813 11.9781 4.16563 11.9187C4.09688 11.8469 4.00313 11.8375 3.9625 11.8875ZM3.60625 11.4281C3.55625 11.4594 3.55625 11.5406 3.60625 11.6125C3.65625 11.6844 3.74062 11.7156 3.78125 11.6844C3.83125 11.6438 3.83125 11.5625 3.78125 11.4906C3.7375 11.4188 3.65625 11.3875 3.60625 11.4281Z" fill="white"/>
</g>
<defs>
<clipPath id="clip0_18_616">
<rect width="15.5" height="16" fill="white" transform="translate(0.25)"/>
</clipPath>
</defs>
</svg>
