<svg width="15" height="14" viewBox="0 0 15 14" fill="none" xmlns="http://www.w3.org/2000/svg">
<g clip-path="url(#clip0_18_826)">
<path d="M7.08008 13.7813C8.95783 13.7813 10.7587 13.0553 12.0864 11.763C13.4142 10.4708 14.1602 8.71813 14.1602 6.89063C14.1602 5.06312 13.4142 3.31046 12.0864 2.01822C10.7587 0.725975 8.95783 0 7.08008 0C5.20232 0 3.40148 0.725975 2.07371 2.01822C0.745935 3.31046 0 5.06312 0 6.89063C0 8.71813 0.745935 10.4708 2.07371 11.763C3.40148 13.0553 5.20232 13.7813 7.08008 13.7813ZM10.2053 5.62555L6.66523 9.07086C6.40526 9.32388 5.98488 9.32388 5.72767 9.07086L3.95765 7.34821C3.69768 7.09519 3.69768 6.68606 3.95765 6.43574C4.21762 6.18541 4.638 6.18272 4.89521 6.43574L6.19507 7.70081L9.26495 4.71039C9.52492 4.45737 9.9453 4.45737 10.2025 4.71039C10.4597 4.9634 10.4625 5.37253 10.2025 5.62286L10.2053 5.62555Z" fill="#575263"/>
</g>
<defs>
<clipPath id="clip0_18_826">
<rect width="14.1602" height="13.7813" fill="white"/>
</clipPath>
</defs>
</svg>
