<svg width="15" height="14" viewBox="0 0 15 14" fill="none" xmlns="http://www.w3.org/2000/svg">
<g clip-path="url(#clip0_18_838)">
<path d="M7.40076 1.3125C8.99554 1.3125 10.525 1.91172 11.6527 2.97833C12.7804 4.04494 13.4139 5.49158 13.4139 7C13.4139 8.50842 12.7804 9.95506 11.6527 11.0217C10.525 12.0883 8.99554 12.6875 7.40076 12.6875C5.80598 12.6875 4.27652 12.0883 3.14885 11.0217C2.02117 9.95506 1.38764 8.50842 1.38764 7C1.38764 5.49158 2.02117 4.04494 3.14885 2.97833C4.27652 1.91172 5.80598 1.3125 7.40076 1.3125ZM7.40076 14C9.36357 14 11.246 13.2625 12.6339 11.9497C14.0218 10.637 14.8015 8.85652 14.8015 7C14.8015 5.14348 14.0218 3.36301 12.6339 2.05025C11.246 0.737498 9.36357 0 7.40076 0C5.43796 0 3.55555 0.737498 2.16763 2.05025C0.779721 3.36301 0 5.14348 0 7C0 8.85652 0.779721 10.637 2.16763 11.9497C3.55555 13.2625 5.43796 14 7.40076 14ZM5.05912 4.78516C4.78737 5.04219 4.78737 5.45781 5.05912 5.71211L6.41785 6.99727L5.05912 8.28242C4.78737 8.53945 4.78737 8.95508 5.05912 9.20937C5.33086 9.46367 5.77028 9.46641 6.03914 9.20937L7.39787 7.92422L8.75661 9.20937C9.02835 9.46641 9.46777 9.46641 9.73663 9.20937C10.0055 8.95234 10.0084 8.53672 9.73663 8.28242L8.3779 6.99727L9.73663 5.71211C10.0084 5.45508 10.0084 5.03945 9.73663 4.78516C9.46488 4.53086 9.02546 4.52812 8.75661 4.78516L7.39787 6.07031L6.03914 4.78516C5.76739 4.52812 5.32797 4.52812 5.05912 4.78516Z" fill="#575263"/>
</g>
<defs>
<clipPath id="clip0_18_838">
<rect width="14.8015" height="14" fill="white"/>
</clipPath>
</defs>
</svg>
