<svg width="24" height="19" viewBox="0 0 24 19" fill="none" xmlns="http://www.w3.org/2000/svg">
<g clip-path="url(#clip0_18_911)">
<path d="M1.94043 8.51426C1.35449 9.1002 1.35449 10.0518 1.94043 10.6377L9.44043 18.1377C10.0264 18.7236 10.9779 18.7236 11.5639 18.1377C12.1498 17.5518 12.1498 16.6002 11.5639 16.0143L6.61855 11.0736H20.9998C21.8295 11.0736 22.4998 10.4033 22.4998 9.57363C22.4998 8.74395 21.8295 8.07363 20.9998 8.07363H6.61855L11.5592 3.13301C12.1451 2.54707 12.1451 1.59551 11.5592 1.00957C10.9732 0.423632 10.0217 0.423632 9.43574 1.00957L1.93574 8.50957L1.94043 8.51426Z" fill="#252525"/>
</g>
<defs>
<clipPath id="clip0_18_911">
<rect width="18" height="24" fill="white" transform="matrix(0 -1 1 0 0 18.5737)"/>
</clipPath>
</defs>
</svg>
