<svg width="22" height="19" viewBox="0 0 22 19" fill="none" xmlns="http://www.w3.org/2000/svg">
<path d="M21.4332 10.6374C22.0266 10.0444 22.0386 9.09326 21.4601 8.51501L14.0552 1.11347C13.4767 0.535229 12.5251 0.547273 11.9318 1.14035C11.3385 1.73343 11.3264 2.68455 11.9049 3.26279L16.7876 8.13849L2.40671 8.32053C1.57704 8.33103 0.898264 9.00951 0.887767 9.83881C0.877269 10.6681 1.53909 11.3296 2.36875 11.3191L16.7497 11.1371L11.7466 16.1379C11.1533 16.731 11.1413 17.6821 11.7198 18.2604C12.2983 18.8386 13.2498 18.8266 13.8432 18.2335L21.4379 10.6421L21.4332 10.6374Z" fill="white"/>
</svg>
